<?xml version="1.0" encoding="utf-8"?>
<!-- Generator: Adobe Illustrator 16.0.0, SVG Export Plug-In . SVG Version: 6.00 Build 0)  -->
<!DOCTYPE svg PUBLIC "-//W3C//DTD SVG 1.1//EN" "http://www.w3.org/Graphics/SVG/1.1/DTD/svg11.dtd">
<svg version="1.1" id="Layer_1" xmlns="http://www.w3.org/2000/svg" xmlns:xlink="http://www.w3.org/1999/xlink" x="0px" y="0px"
	 width="278.988px" height="216.584px" viewBox="0 0 278.988 216.584" enable-background="new 0 0 278.988 216.584"
	 xml:space="preserve">
<path fill-rule="evenodd" clip-rule="evenodd" fill="#FFFFFF" d="M110.856,216.584c9.492-4.499,19.629-4.197,29.75-3.967
	c0.975,0.021,2.146,0.101,2.88,0.632c4.744,3.437,9.267,1.923,13.968-0.167c11.764-5.227,22.91-3.792,33.402,3.502
	C164.19,216.584,137.523,216.584,110.856,216.584z"/>
<path fill-rule="evenodd" clip-rule="evenodd" fill="#FFFFFF" d="M80.856,216.584c0.102-3.256,1.506-5.57,5.318-7.094
	c-0.513,2.763-0.916,4.928-1.318,7.094C83.523,216.584,82.19,216.584,80.856,216.584z"/>
<path fill-rule="evenodd" clip-rule="evenodd" fill="#FFFFFF" d="M46.88,207.559c1.659,3.008,3.318,6.018,4.977,9.025c-1,0-2,0-3,0
	c-0.674-2.996-1.347-5.992-2.021-8.988L46.88,207.559z"/>
<path fill-rule="evenodd" clip-rule="evenodd" fill="#FFFFFF" d="M228.999,151.621c-3.748,4.414-7.301,9.02-11.355,13.131
	c-1.287,1.304-3.891,1.691-5.93,1.8c-6.482,0.346-13.028-0.075-19.468,0.592c-16.907,1.752-30.221,10.566-41.685,22.493
	c-2.033,2.116-4.141,4.876-1.515,8.972c1.419-1.323,2.461-2.54,3.729-3.435c4.328-3.053,8.507-6.43,13.167-8.874
	c7.103-3.725,14.206-2.472,20.896,1.631c1.419,0.871,2.938,1.638,4.192,2.708c2.709,2.312,5.59,2.879,8.759,1.225
	c2.508-1.309,4.801-1.005,7.032,0.562c3.263,2.292,6.714,2.266,10.466,1.297c6.441-1.664,12.938-3.136,19.454-4.477
	c8.327-1.714,15.462,1.361,21.87,6.264c4.957,3.792,4.855,8.444-0.465,11.691c-2.843,1.736-6.443,2.967-9.75,3.086
	c-17.332,0.629-34.219-2.014-50.382-8.447c-10.41-4.145-20.616-4.714-30.964,0.189c-3.894,1.846-7.984,3.399-12.134,4.548
	c-6.322,1.749-8.124,0.797-11.352-4.777c-0.403-0.697-0.943-1.316-1.961-2.715c-6.488,6.334-13.254,12.188-23.383,7.337
	c3.378-4.35,6.607-8.51,9.489-12.221c0,0.725,0,2.578,0,4.473c5.77-0.928,7.456-3.154,7.06-8.268
	c-0.281-3.631-0.295-7.291-0.224-10.935c0.052-2.661-0.039-5.063-3.83-5.863c10.098-14.278,23.672-23.072,39.707-28.974
	c-0.862,0.984-1.666,2.029-2.596,2.945c-2.965,2.922-6.055,5.721-8.935,8.722c-1.247,1.298-2.446,2.856-3.014,4.519
	c-0.399,1.172-0.07,2.996,0.665,3.984c0.381,0.514,2.619,0.253,3.549-0.365c2.538-1.686,4.826-3.746,7.213-5.658
	c0.239,0.23,0.479,0.461,0.718,0.69c-3.125,4.784-6.249,9.568-9.374,14.353c0.324,0.402,0.65,0.805,0.975,1.207
	c10.237-7.061,20.432-14.225,32.222-18.344c11.825-4.131,24.019-6.137,36.481-6.375
	C228.552,150.748,228.776,151.186,228.999,151.621z"/>
<path fill-rule="evenodd" clip-rule="evenodd" fill="#FFFFFF" d="M0,135.927c0.839-1.703,1.452-3.571,2.555-5.083
	c6.473-8.869,12.598-18.051,19.721-26.374c9.931-11.604,18.026-24.17,24.853-37.833c5.783-11.573,12.751-22.593,19.714-33.527
	c11.546-18.132,28.614-27.985,49.623-30.95c9.191-1.297,18.527-1.653,27.812-2.148c2.48-0.132,5.016,0.797,8.592,1.427
	c-2.277,2.702-3.473,4.803-5.257,6.088c-3.379,2.434-4.956,5.678-5.722,9.571c-0.615,3.133-2.511,4.717-5.75,3.895
	c-9.384-2.383-18.079,0.225-26.814,3.285c-12.725,4.458-22.58,12.195-29.976,23.586C70.836,60.979,61.52,73.571,52.795,86.552
	c-3.238,4.818-5.76,10.114-8.655,15.165c-3.933,6.862-8.78,12.833-15.454,17.355c-7.433,5.033-14.511,10.588-21.86,15.75
	c-1.636,1.148-3.76,1.603-5.66,2.377C0.778,136.775,0.389,136.352,0,135.927z"/>
<path fill-rule="evenodd" clip-rule="evenodd" fill="#FFFFFF" d="M140.237,117.91c0.36,1.266,0.621,2.182,0.666,2.338
	c3.434,0.926,6.422,1.73,9.118,2.457c-0.101,2.045-0.176,3.566-0.208,4.23c-3.12,2.561-5.861,4.811-8.315,6.824
	c2.431,3.864,4.712,7.198,6.63,10.73c0.531,0.979,0.496,2.977-0.164,3.769c-2.736,3.282-5.811,6.281-8.762,9.384
	c-6.545-2.262-13.908,2.334-20.154-2.405c-0.123-0.093-0.176-0.278-0.42-0.68c1.76-2.935,3.607-6.014,5.453-9.093
	c-0.298-0.408-0.597-0.816-0.895-1.225c-6.294,0-12.588,0-18.882,0c-0.307,0.49-0.613,0.98-0.92,1.47
	c2.055,3.194,4.109,6.388,6.411,9.966c-2.219,0.92-4.269,1.537-6.05,2.602c-0.926,0.555-1.378,1.899-2.045,2.887
	c1.244,0.496,2.524,1.492,3.724,1.402c5.026-0.379,10.025-1.104,15.042-1.631c0.526-0.055,1.103,0.367,2.379,0.829
	c-4.123,2.581-10.717-0.808-11.23,6.37c3.253,2.855,6.804,2.503,9.515-0.913c2.597-3.272,6.554-3.366,10.629-4.499
	c-3.377,7.482-6.397,14.174-9.219,20.428c-2.623,0-5.736,0.132-8.826-0.075c-1.025-0.069-2.203-0.813-2.939-1.599
	c-1.356-1.445-2.726-3.009-3.587-4.77c-6.134-12.549-12.314-25.08-18.105-37.788c-2.34-5.134-1.951-10.61,1.962-15.025
	c2.262-2.552,2.604-4.751,0.347-7.519c0.431-0.191,0.862-0.385,1.293-0.576c2.046,2.734,4.092,5.469,6.69,8.942
	c0.358-0.172,2.004-0.534,3.031-1.532c3.377-3.284,3.128-7.529,2.4-11.703c-0.648-3.715-3.018-5.63-6.792-6.258
	c-2.193-0.365-4.259-1.49-6.457-2.301c3.848-6.951,33.313-16.702,41.357-13.858c-0.959,2.49-1.921,4.987-3.285,8.526
	c5.296-1.13,9.532-2.053,13.777-2.93c1.69-0.349,3.401-0.598,5.104-0.892c0.31,1.887,1.256,3.975,0.743,5.604
	c-0.489,1.559-2.298,3.272-3.887,3.77c-1.949,0.611-4.309,0.26-6.426-0.076c-7.769-1.233-15.265,0.291-22.677,2.228
	c-1.686,0.441-4.387,2.279-4.285,3.221c0.24,2.211,1.548,4.575,3.08,6.292c1.241,1.391,3.613,1.698,5.177,2.89
	c3.958,3.013,7.739,4.766,12.673,1.677C134.854,118.177,137.689,118.377,140.237,117.91z"/>
<path fill-rule="evenodd" clip-rule="evenodd" fill="#FFFFFF" d="M278.6,79.966c-5.609,1.72-11.331,2.811-17.326,1.907
	c-7.796-1.176-14.353-5.143-20.698-9.488c-15.098-10.338-30.116-20.791-45.266-31.052c-2.935-1.988-4.318-3.916-3.721-7.752
	c0.631-4.041,0.328-8.284,0-12.404c-0.426-5.338-0.062-5.94,4.817-4.461c17.952,5.442,34.401,13.357,46.733,28.207
	c5.42,6.527,11.334,12.643,16.799,19.135c3.485,4.142,7.314,7.643,12.252,10.002c2.43,1.161,4.542,2.982,6.798,4.505
	C278.858,79.031,278.729,79.499,278.6,79.966z"/>
<path fill-rule="evenodd" clip-rule="evenodd" fill="#FFFFFF" d="M163.807,69.556c-3.05,1.77-6.113,3.739-9.694,1.347
	c-2.993-1.998-4.51-6.866-3.219-11.267c1.627-5.546,1.432-10.407-1.758-15.691c-1.812-3.005-3.383-7.234-1.77-11.35
	c0.12-0.306,0.323-0.736,0.205-0.957c-2.46-4.573-0.185-8.67,0.729-13.134c1.295-6.322,5.208-12.467,11.194-14.527
	c11.836-4.073,17.609-2.037,24.18,8.872c3.21,5.33,5.807,10.942,3.967,17.462c-0.242,0.857-0.865,1.606-1.43,2.617
	c-3.004-1.599-2.758-4.194-3.03-6.599c-0.354-3.119-0.399-6.356-1.329-9.306c-1.291-4.095-4.148-5.591-9.799-5.538
	c1.785,3.484,3.599,6.495,4.9,9.713c1.356,3.355,2.447,6.931-1.867,10.252c-0.645-3.611-1.289-7.222-1.934-10.833
	c-0.414-0.004-0.828-0.009-1.244-0.013c-2.458,3.441-2.154,7.387-1.672,11.482c0.45,3.827-0.762,4.75-4.021,3.453
	c-0.241-0.096-0.343-0.542-0.753-1.24c4.74-2.418,3.707-6.968,3.777-11.129c0.078-4.662,0.158-9.336-0.101-13.985
	c-0.078-1.405-1.278-2.748-1.966-4.119c-1.51,0.789-3.254,1.328-4.449,2.451c-0.869,0.814-1.199,2.366-1.448,3.65
	c-3.107,16.002-6.173,32.012-9.191,48.031c-0.243,1.288-0.191,2.667-0.062,3.982c0.499,5.09,2.708,6.982,7.862,6.8
	c1.328-0.047,2.652-0.237,3.978-0.362L163.807,69.556z M149.386,26.9c0.162,0.055,0.324,0.11,0.486,0.165
	c0.042,0.659-0.103,1.408,0.163,1.958c0.679,1.406,1.54,2.724,2.327,4.077c0.975-1.13,2.398-2.109,2.838-3.419
	c1.363-4.062,2.545-8.211,3.379-12.41c0.287-1.447-0.657-3.14-1.039-4.72c-1.478,0.878-3.721,1.417-4.287,2.698
	C151.604,18.973,150.626,22.995,149.386,26.9z"/>
<path fill-rule="evenodd" clip-rule="evenodd" fill="#FFFFFF" d="M26.685,87.771c5.144-20.321,13.16-39.055,29.737-53.093
	c-5.844,8.327-12.517,16.208-17.3,25.104c-4.821,8.966-7.765,18.942-11.532,28.475C27.289,88.096,26.987,87.934,26.685,87.771z"/>
<path fill-rule="evenodd" clip-rule="evenodd" fill="#FFFFFF" d="M51.059,189.359c6.544,0,13.158-0.586,19.613,0.172
	c5.856,0.688,11.475,0.984,17.188-0.556c2.149-0.579,4.42-0.706,6.66-0.778C80.207,194.291,65.683,193.607,51.059,189.359z"/>
<path fill-rule="evenodd" clip-rule="evenodd" fill="#FFFFFF" d="M103.328,193.047c-1.068,4.675,3.793,10.711-3.565,13.916
	c-2.894-1.282-3.491-3.395-1.789-6.5c0.69-1.26,0.707-2.889,1.24-5.305c-2.419,1.06-3.759,1.646-5.099,2.232
	c-0.188-0.41-0.376-0.821-0.564-1.232c3.002-1.463,6.004-2.926,9.007-4.389C102.814,192.195,103.071,192.621,103.328,193.047z"/>
<path fill-rule="evenodd" clip-rule="evenodd" fill="#FFFFFF" d="M159.592,54.617c-1.245-3.768-0.462-6.471,1.962-8.664
	c1.806-1.634,3.711-1.441,5.148,0.535c1.445,1.987-0.146,2.921-1.568,3.921C163.421,51.614,161.792,52.937,159.592,54.617z"/>
<path fill-rule="evenodd" clip-rule="evenodd" fill="#FFFFFF" d="M175.368,51.458c-1.414-2.07-2.734-3.302-3.041-4.75
	c-0.152-0.718,1.555-1.832,2.421-2.766c1.22,1.354,2.601,2.611,3.522,4.144C178.452,48.39,176.867,49.755,175.368,51.458z"/>
<path fill-rule="evenodd" clip-rule="evenodd" fill="#FFFFFF" d="M114.862,190.424c3.715,1.207,6.885,2.561,8.394,6.669
	C118.234,197.492,115.959,195.616,114.862,190.424z"/>
<path fill-rule="evenodd" clip-rule="evenodd" fill="#FFFFFF" d="M189.021,108.959c3.281,2.924,1.975,4.696,0.309,6.098
	c-0.379,0.318-1.809-0.613-2.756-0.969C187.389,112.378,188.204,110.668,189.021,108.959z"/>
<path fill-rule="evenodd" clip-rule="evenodd" fill="#FFFFFF" d="M182.005,36.758c3.984,1.976,4.122,3.83,2.545,5.826
	c-0.434,0.55-1.675,0.463-2.545,0.668C182.005,41.386,182.005,39.52,182.005,36.758z"/>
<path fill-rule="evenodd" clip-rule="evenodd" fill="#FFFFFF" d="M84.889,201.6c1.134-0.805,2.269-1.609,3.887-2.758
	c1.092,4.011,1.979,7.266,2.865,10.52c-3.712-1.822-0.928-8.039-6.821-7.824L84.889,201.6z"/>
<path fill-rule="evenodd" clip-rule="evenodd" fill="#FFFFFF" d="M84.82,201.537c-0.251,4.421-3.39,5.578-7.501,5.608
	c2.523-1.849,5.047-3.697,7.57-5.546L84.82,201.537z"/>
<path fill-rule="evenodd" clip-rule="evenodd" fill="#FFFFFF" d="M163.863,69.618c1.696-2.735,3.392-5.47,5.026-8.106
	c0.935,4.24,0.21,5.419-5.083,8.044L163.863,69.618z"/>
<path fill-rule="evenodd" clip-rule="evenodd" fill="#FFFFFF" d="M160.695,59.204c-1.712,1.48-2.811,2.43-3.981,3.443
	C156.778,59.311,156.778,59.311,160.695,59.204z"/>
<path fill-rule="evenodd" clip-rule="evenodd" fill="#FFFFFF" d="M43.106,190.121c-0.808-0.162-1.615-0.324-2.423-0.485
	c0.035-0.317,0.07-0.634,0.104-0.951c0.862,0.075,1.724,0.151,2.586,0.228C43.284,189.314,43.195,189.718,43.106,190.121z"/>
<path fill-rule="evenodd" clip-rule="evenodd" fill="#FFFFFF" d="M128.335,113.499c0.461,0.353,1.001,0.56,1.068,0.87
	c0.079,0.365-0.252,0.818-0.405,1.233c-0.463-0.267-0.99-0.472-1.344-0.843C127.565,114.666,128.032,114.043,128.335,113.499z"/>
<path fill-rule="evenodd" clip-rule="evenodd" fill="#FFFFFF" d="M114.035,199.108c-0.694,0.887-1.387,1.773-2.081,2.66
	c-0.221-0.144-0.442-0.288-0.663-0.432c0.597-0.944,1.194-1.89,1.791-2.834C113.399,198.705,113.717,198.906,114.035,199.108z"/>
<path fill-rule="evenodd" clip-rule="evenodd" fill="#FFFFFF" d="M46.835,207.596c-0.914-1.523-1.827-3.048-2.741-4.572
	c0.305-0.151,0.611-0.303,0.916-0.455c0.623,1.664,1.246,3.327,1.869,4.99L46.835,207.596z"/>
<path fill-rule="evenodd" clip-rule="evenodd" fill="#FFFFFF" d="M188.603,122.959c-0.666,0.289-1.332,0.578-2.013,0.874
	c0.39-0.569,0.788-1.149,1.187-1.729C188.052,122.389,188.327,122.674,188.603,122.959z"/>
<g>
</g>
<g>
</g>
<g>
</g>
<g>
</g>
<g>
</g>
<g>
</g>
<g>
</g>
<g>
</g>
<g>
</g>
<g>
</g>
<g>
</g>
<g>
</g>
<g>
</g>
<g>
</g>
<g>
</g>
</svg>
